<?xml version="1.0" encoding="utf-8"?>
<!-- Generator: Adobe Illustrator 22.1.0, SVG Export Plug-In . SVG Version: 6.00 Build 0)  -->
<svg version="1.1" id="レイヤー_1" xmlns="http://www.w3.org/2000/svg" xmlns:xlink="http://www.w3.org/1999/xlink" x="0px"
	 y="0px" viewBox="0 0 106 92" style="enable-background:new 0 0 106 92;" xml:space="preserve">
<style type="text/css">
	.st0{display:none;fill:#FFFFFF;}
	.st1{fill:#FFFFFF;}
	.st2{fill:#FAC549;}
</style>
<g>
	<rect x="-3" y="27.7" transform="matrix(0.766 -0.6428 0.6428 0.766 -12.7342 26.1592)" class="st0" width="65.2" height="5.7"/>
	<rect x="73.1" y="-2" transform="matrix(0.6428 -0.766 0.766 0.6428 3.7202 69.1318)" class="st0" width="5.7" height="65.2"/>
	<g>
		<path class="st1" d="M64.3,88.7h-23V68.3c0-5.4,4.1-9.8,9.2-9.8h4.6c5.1,0,9.2,4.4,9.2,9.8V88.7z"/>
		<g>
			<ellipse class="st2" cx="47.2" cy="75.8" rx="2.7" ry="2.6"/>
		</g>
	</g>
	<path class="st1" d="M104.8,47.9L104.8,47.9c-1.1,1.3-3,1.4-4.2,0.4L49.2,5.2l3.9-4.6l51.3,43.1C105.6,44.8,105.8,46.7,104.8,47.9z
		"/>
	<path class="st1" d="M1.2,47.9L1.2,47.9c-1.1-1.3-0.9-3.2,0.4-4.2L52.9,0.6l3.9,4.6L5.5,48.3C4.2,49.4,2.3,49.2,1.2,47.9z"/>
	<path class="st1" d="M23.1,91.4h-1c-1.4,0-2.5-1.1-2.5-2.5l0-43.9c0-1.4,1.1-2.5,2.5-2.5h1c1.4,0,2.5,1.1,2.5,2.5v43.9
		C25.6,90.2,24.4,91.4,23.1,91.4z"/>
	<path class="st1" d="M83.9,91.4h-1c-1.4,0-2.5-1.1-2.5-2.5V45c0-1.4,1.1-2.5,2.5-2.5h1c1.4,0,2.5,1.1,2.5,2.5v43.9
		C86.4,90.2,85.3,91.4,83.9,91.4z"/>
</g>
</svg>
