<?xml version="1.0" encoding="utf-8"?>
<!-- Generator: Adobe Illustrator 22.1.0, SVG Export Plug-In . SVG Version: 6.00 Build 0)  -->
<svg version="1.1" id="レイヤー_1" xmlns="http://www.w3.org/2000/svg" xmlns:xlink="http://www.w3.org/1999/xlink" x="0px"
	 y="0px" viewBox="0 0 244.5 104.3" style="enable-background:new 0 0 244.5 104.3;" xml:space="preserve">
<style type="text/css">
	.st0{fill:#333333;stroke:#333333;stroke-miterlimit:10;}
	.st1{fill:#FFFFFF;stroke:#FFFFFF;stroke-miterlimit:10;}
</style>
<g>
	<path class="st0" d="M15.3,13.8c-1.6,2.6-3.7,4.8-6.1,6.5c-0.2,0.1-0.3,0.1-0.5-0.1c-0.1-0.1-0.1-0.3,0.1-0.5
		c2.5-2.1,4.5-4.7,5.9-7.8H9.6c0.2,0.4,0.3,0.8,0.3,1.1c0,0.6-0.2,0.9-0.7,0.9c-0.3,0-0.6-0.3-0.7-0.8C8.1,12,7.6,11,6.7,10v11.6
		c0,0.2-0.1,0.3-0.4,0.3H5.8c-0.2,0-0.4-0.1-0.4-0.3V10.7c-0.8,2.4-1.7,4.5-3,6.5c-0.1,0.2-0.3,0.2-0.5,0.1c-0.1-0.1-0.2-0.2,0-0.4
		c1.5-2.8,2.7-6.1,3.5-9.9H2.5c-0.2,0-0.3-0.1-0.4-0.3c0-0.2,0.1-0.3,0.3-0.3h3V1.6c0-0.2,0.1-0.4,0.4-0.3C7,1.4,7.6,1.6,7.6,1.9
		c0,0.2-0.3,0.4-0.9,0.6v3.9h1.2l0.9-1.2c0.1-0.2,0.3-0.2,0.5,0c0.4,0.5,0.7,0.8,0.9,1.1c0.1,0.2,0.1,0.3,0,0.5
		c-0.1,0.1-0.2,0.2-0.4,0.2H6.7v2.3c1.1,0.7,1.9,1.4,2.5,2.2h6.1V6.8h-2.9l-0.1,0.2c-0.6,1.2-1.2,2.5-1.9,3.5
		c-0.1,0.2-0.3,0.2-0.5,0.1c-0.2-0.1-0.2-0.3-0.1-0.5c1.1-2.1,1.8-4.5,2.2-7.3c0-0.2,0.2-0.3,0.4-0.3c1.2,0.3,1.8,0.5,1.8,0.8
		c0,0.2-0.3,0.3-0.9,0.5c-0.2,0.8-0.4,1.6-0.7,2.3h2.6V1.6c0-0.2,0.1-0.4,0.4-0.3c1.3,0,1.9,0.2,1.9,0.6c0,0.2-0.3,0.4-1,0.6v3.8
		h2.6L20.1,5c0.1-0.2,0.3-0.2,0.5,0c0.4,0.4,0.7,0.8,1,1.2c0.1,0.2,0.1,0.3,0,0.5c-0.1,0.1-0.2,0.2-0.4,0.2h-4.7v4.6h3.5l0.9-1.3
		c0.1-0.2,0.3-0.2,0.5,0c0.4,0.4,0.8,0.9,1,1.2c0.1,0.2,0.1,0.3,0,0.5c-0.1,0.1-0.2,0.2-0.4,0.2h-5.4c1.5,2.6,3.6,4.8,6.2,6.6
		c0.2,0.1,0.2,0.3,0,0.5c-0.2,0.2-0.5,0.4-0.7,0.7c-0.1,0.2-0.3,0.2-0.5,0c-2.2-1.9-3.9-4.2-5.3-7.1v8.8c0,0.2-0.1,0.3-0.3,0.3h-0.6
		c-0.3,0-0.4-0.1-0.4-0.3V13.8z"/>
	<path class="st0" d="M43.9,7.3c0.5,3.7,1.6,6.8,3.3,9.2c1,1.4,1.7,2.1,2,2.1c0.4,0,0.7-1.3,1.1-3.9c0-0.3,0.2-0.4,0.4-0.3
		c0.1,0.1,0.2,0.2,0.2,0.4c-0.1,1.3-0.2,2.4-0.2,3.1c0,1.1,0.2,1.7,0.6,2.1c0.2,0.1,0.3,0.3,0.2,0.5c-0.2,0.5-0.5,0.7-1,0.7
		c-0.7,0-1.8-0.7-3-2.1c-2.6-2.9-4.2-6.9-4.9-11.8H32c-0.2,0-0.3-0.1-0.4-0.3c-0.1-0.2,0.1-0.3,0.3-0.3h10.5c0-0.2,0-0.4-0.1-0.7
		c-0.1-0.9-0.1-1.9-0.1-3.1V1.9c0-0.2,0.1-0.3,0.4-0.3c1.3,0.1,1.9,0.3,1.9,0.6c0,0.2-0.3,0.4-0.9,0.6v0.5c0,1.1,0.1,2.3,0.2,3.4
		h4.7l0.9-1.3c0.2-0.2,0.3-0.2,0.5,0c0.4,0.3,0.7,0.7,1.1,1.1c0.1,0.2,0.1,0.3,0,0.5c-0.1,0.2-0.2,0.2-0.4,0.2H43.9z M38.1,12.3v5.4
		c1.7-0.3,3.3-0.7,4.7-1.1c0.2-0.1,0.4,0,0.4,0.3c0,0.1,0,0.3-0.3,0.3c-3.1,1.1-6.2,2-9.3,2.8c-0.1,0.6-0.3,0.9-0.5,0.9
		c-0.3,0-0.6-0.6-0.9-1.8c-0.1-0.3,0-0.4,0.3-0.5c1.4-0.2,2.8-0.4,4.2-0.7v-5.7h-3.8c-0.2,0-0.3-0.1-0.4-0.3
		c-0.1-0.2,0.1-0.3,0.3-0.3h6.9l0.9-1.3c0.1-0.2,0.3-0.2,0.5,0c0.4,0.4,0.7,0.8,1.1,1.2c0.1,0.1,0.1,0.3,0,0.5
		c-0.1,0.2-0.2,0.2-0.4,0.2H38.1z M45.9,2c1.8,0.8,2.7,1.7,2.7,2.7c0,0.6-0.3,0.9-0.8,0.9c-0.4,0-0.7-0.3-0.8-0.8
		c-0.2-0.8-0.7-1.6-1.4-2.3c-0.2-0.2-0.2-0.3-0.1-0.4C45.5,1.9,45.6,1.9,45.9,2z"/>
	<path class="st0" d="M70.5,2.5c2.5,3,5.7,5.3,9.5,6.8c0.3,0.1,0.3,0.3,0.1,0.5c-0.2,0.2-0.4,0.5-0.6,0.8c-0.1,0.2-0.3,0.3-0.5,0.1
		c-4-2.2-7-4.8-8.9-7.9C70,3,69.9,3.1,69.9,3.2c-2.1,3.7-5.3,6.7-9.6,8.7c-0.2,0.1-0.4,0-0.5-0.1c-0.1-0.1,0-0.3,0.2-0.4
		c4.1-2.4,7.2-5.7,9.1-10c0.1-0.2,0.3-0.3,0.5-0.2c1.2,0.2,1.8,0.5,1.8,0.8c0,0.2-0.3,0.3-1,0.4L70.5,2.5z M67.4,14.5
		c0-0.2,0.1-0.2,0.1-0.3l0,0l0-0.1h-6c-0.2,0-0.3-0.1-0.4-0.3c-0.1-0.2,0-0.3,0.3-0.3h14.9l1-1.2c0.2-0.2,0.3-0.2,0.5,0l0,0
		c0.4,0.4,0.9,0.8,1.2,1.2c0.1,0.1,0.2,0.3,0,0.5c-0.1,0.1-0.2,0.2-0.4,0.2h-9.4c-1,2-1.9,3.6-2.8,4.9c-0.1,0.1-0.1,0.2-0.2,0.3
		l1.3,0c1.9-0.1,4.3-0.3,7.2-0.4l0.7,0c-0.7-0.8-1.7-1.6-2.9-2.4c-0.2-0.1-0.2-0.3-0.1-0.5c0.1-0.1,0.2-0.1,0.4,0
		c2.3,1.1,3.9,2.2,4.9,3.3c0.6,0.7,0.9,1.3,0.9,1.7c0,0.6-0.3,0.9-0.8,0.9c-0.3,0-0.5-0.2-0.7-0.5c-0.3-0.6-0.8-1.3-1.3-1.9
		l-0.5,0.1c-3.9,0.6-8.1,1-12.5,1.4c-0.1,0.5-0.3,0.8-0.4,0.8c-0.3,0-0.6-0.6-1-1.7c-0.1-0.3,0.2-0.4,0.6-0.4c1.4,0,2.4,0,3.2-0.1
		C66.3,17.7,66.9,16,67.4,14.5z M72.6,9.5l0.9-1c0.2-0.2,0.3-0.2,0.5,0c0.4,0.3,0.7,0.7,1.1,1c0.1,0.2,0.2,0.3,0.1,0.5
		C75,10,74.8,10,74.7,10H65c-0.2,0-0.3-0.1-0.4-0.3c-0.1-0.2,0.1-0.3,0.3-0.3H72.6z"/>
	<path class="st0" d="M93.7,10.9c1.3,0.4,2.4,0.9,3.1,1.5s1.1,1.1,1.1,1.6c0,0.5-0.2,0.8-0.7,0.8c-0.3,0-0.5-0.2-0.8-0.6
		c-0.7-1-1.6-1.9-2.7-2.6v10c0,0.2-0.1,0.3-0.4,0.3h-0.6c-0.2,0-0.3-0.1-0.3-0.3v-9.2c-1,1-2.1,1.9-3.3,2.8c-0.2,0.1-0.3,0.1-0.5,0
		c-0.1-0.2-0.1-0.3,0.1-0.5c2.7-2.3,4.9-5.2,6.5-8.6h-5.9c-0.2,0-0.3-0.1-0.4-0.3c-0.1-0.2,0-0.3,0.3-0.3h3.2v-4
		c0-0.2,0.1-0.3,0.4-0.3c1.2,0,1.9,0.2,1.9,0.6c0,0.2-0.3,0.4-0.9,0.6v3.1h1.5l0.6-0.8c0.1-0.2,0.3-0.2,0.5,0
		c0.7,0.7,1.1,1.1,1.1,1.4c0,0.1-0.1,0.2-0.2,0.2l-0.7,0.3C95.6,8.3,94.6,9.7,93.7,10.9L93.7,10.9z M101.4,19.9V10H97
		c-0.2,0-0.3-0.1-0.4-0.3s0.1-0.3,0.3-0.3h4.5V2.5c0-0.3,0.1-0.4,0.4-0.4c1.3,0,2,0.3,2,0.6c0,0.2-0.3,0.4-1,0.7v6h2.9l0.9-1.2
		c0.2-0.2,0.3-0.2,0.5,0c0.4,0.4,0.7,0.8,1,1.1c0.1,0.2,0.1,0.3,0,0.5c-0.1,0.1-0.2,0.2-0.4,0.2h-4.9v9.9h3.7l1-1.4
		c0.1-0.2,0.3-0.2,0.5,0l0,0c0.4,0.4,0.8,0.8,1,1.2c0.1,0.1,0.1,0.3,0,0.5c-0.1,0.2-0.2,0.3-0.4,0.3H95.8c-0.2,0-0.3-0.1-0.4-0.3
		c-0.1-0.2,0-0.3,0.3-0.3H101.4z"/>
</g>
<g>
	<path class="st0" d="M37.8,72.7h-6.3c-0.5,0-0.8-0.2-1-0.7c-2.3-5.7-4.6-10.2-7-13.6c-2-2.8-4.5-4.2-7.5-4.2h-3.9v12.6
		c0,1.8,0.5,3,1.6,3.6c0.6,0.3,1.8,0.5,3.4,0.7c0.6,0.1,0.8,0.4,0.8,0.9c0,0.4-0.3,0.7-0.8,0.7H3.6c-0.5,0-0.9-0.3-0.9-0.8
		c0-0.4,0.3-0.7,0.9-0.8c1.4-0.2,2.5-0.3,3.1-0.6c1.1-0.5,1.6-1.7,1.6-3.6V39.9c0-1.8-0.3-2.9-1-3.4c-0.5-0.4-1.8-0.8-3.7-1
		c-0.5-0.1-0.8-0.3-0.8-0.9c0-0.4,0.3-0.7,0.9-0.7h16.6c3.8,0,6.8,0.6,9,1.9c3.2,1.8,4.8,4.4,4.8,7.8c0,3.7-1.5,6.5-4.6,8.3
		c-1.8,1.1-4.1,1.6-6.6,1.8v0.2c2.1,0.8,4.2,2.7,6.2,5.9c0.9,1.4,2.4,4.1,4.5,8.1c1,1.9,2.5,3,4.5,3.2c0.5,0.1,0.8,0.3,0.8,0.8
		C38.7,72.4,38.4,72.7,37.8,72.7z M12.2,52.4h4.9c8.5,0,12.7-2.8,12.7-8.4c0-5.6-3.6-8.3-10.7-8.3H17c-1,0-1.9,0.1-2.6,0.3
		c-1.5,0.4-2.3,1.7-2.3,3.9V52.4z"/>
	<path class="st0" d="M55.2,67.9c0.6,0.6,0.9,1.3,0.9,2.1c0,0.8-0.3,1.5-0.9,2.1c-0.6,0.6-1.3,0.9-2.1,0.9s-1.5-0.3-2.1-0.9
		c-0.6-0.6-0.9-1.3-0.9-2.1c0-0.8,0.3-1.5,0.9-2.1c0.6-0.6,1.3-0.9,2.1-0.9S54.6,67.4,55.2,67.9z"/>
	<path class="st0" d="M92,52.4c7.8,1.3,11.7,4.6,11.7,9.7c0,7.1-5.4,10.6-16.3,10.6H71.4c-0.5,0-0.9-0.3-0.9-0.8
		c0-0.4,0.3-0.7,0.8-0.8c1.4-0.1,2.4-0.3,3.1-0.6c1.2-0.5,1.6-1.7,1.6-3.6v-27c0-1.8-0.3-2.9-1-3.4c-0.5-0.4-1.8-0.8-3.7-1
		c-0.5-0.1-0.8-0.3-0.8-0.9c0-0.4,0.3-0.7,0.9-0.7h16.2c3.6,0,6.5,0.5,9,1.8c3.2,1.5,4.8,4.1,4.8,7.5c0,4.8-3.1,7.9-9.5,9V52.4z
		 M79.9,51.5h5.9c7.7,0,11.5-2.7,11.5-8c0-5.2-3.6-7.8-10.7-7.8h-1.9c-1,0-1.8,0.1-2.3,0.2c-1.7,0.3-2.5,1.6-2.5,4V51.5z M79.9,53.5
		v13.1c0,3,1.6,4.4,4.8,4.4h1.8c8.6,0,12.9-2.9,12.9-8.6c0-5.9-4.6-8.9-13.7-8.9H79.9z"/>
	<path class="st0" d="M125.4,52.3c0.8-2,2.1-3.7,3.8-5.2c1.5-1.3,3.1-1.8,4.9-1.8c2.1,0,3.1,0.9,3.1,2.8c0,1.7-0.8,2.5-2.3,2.5
		c-1.5,0-2.3-0.8-2.3-2.3c0-0.1,0-0.3,0.1-0.8c-1.4,0.1-2.9,1-4.4,2.7c-1.2,1.4-2.1,3.1-2.7,5.1v12.2c0,1.7,0.4,2.6,1.2,3
		c0.7,0.2,1.6,0.4,2.9,0.4c0.5,0,0.9,0.3,0.9,0.9c0,0.4-0.3,0.7-0.9,0.7H118c-0.6,0-0.9-0.3-0.9-0.8c0-0.4,0.3-0.7,0.9-0.7
		c0.9-0.1,1.6-0.2,2.1-0.3c1.2-0.3,1.8-1.4,1.8-3.1V51.3c0-1.8-0.4-2.7-1.3-3.1c-0.5-0.2-1.4-0.3-2.6-0.3c-0.6,0-0.9-0.3-0.9-0.9
		c0-0.5,0.3-0.8,0.9-0.8c2.4-0.1,4.5-0.3,6.4-0.7c0.6-0.1,0.9,0.2,0.9,0.8V52.3z"/>
	<path class="st0" d="M174.2,71.4c-0.9,1.4-2.1,2.1-3.6,2.1c-2.6,0-3.9-1.5-4-4.7c-2.3,3.2-5.3,4.8-9.3,4.8c-2.4,0-4.5-0.6-6-1.9
		c-1.7-1.4-2.6-3.2-2.6-5.6c0-5.8,5-9,14.8-9.6l2.8-0.2v-1c0-5.5-2.2-8.2-6.5-8.2c-2.9,0-4.8,0.9-5.9,2.9c1,0.2,1.5,0.8,1.5,2
		c0,1.6-0.8,2.4-2.4,2.4c-1.8,0-2.6-0.9-2.6-2.7c0-1.5,0.8-2.9,2.5-4.1c2-1.5,4.4-2.3,7.1-2.3c6.4,0,9.7,3.2,9.7,9.6V66
		c0,3.7,0.6,5.5,1.9,5.5c0.5,0,1-0.3,1.5-0.9c0.4-0.5,0.7-0.7,1-0.4C174.4,70.6,174.5,70.9,174.2,71.4z M166.2,58.3l-2.3,0.1
		c-7.6,0.3-11.4,2.9-11.4,7.4c0,1.7,0.5,3.1,1.6,4.1c1,1,2.3,1.5,3.9,1.5c2.1,0,4.1-0.6,5.8-2c1.2-0.9,2-2.1,2.5-3.6V58.3z"/>
	<path class="st0" d="M198,72.7h-11.3c-0.6,0-0.9-0.3-0.9-0.8c0-0.4,0.3-0.7,0.9-0.7c0.8-0.1,1.5-0.2,2.1-0.3
		c1.2-0.3,1.8-1.4,1.8-3.1V51.3c0-1.8-0.4-2.7-1.3-3.1c-0.4-0.2-1.3-0.3-2.6-0.3c-0.6,0-0.9-0.3-0.9-0.9c0-0.5,0.3-0.8,0.9-0.8
		c2.3-0.1,4.5-0.3,6.6-0.7c0.6-0.1,0.9,0.2,0.9,0.8v21.4c0,1.7,0.4,2.6,1.3,3c0.7,0.2,1.5,0.4,2.5,0.4c0.6,0,0.9,0.3,0.9,0.8
		C198.9,72.4,198.6,72.7,198,72.7z M194.4,34.6c0.5,0.6,0.8,1.2,0.8,2c0,1.9-0.9,2.7-2.8,2.7c-1.8,0-2.8-0.9-2.8-2.7
		s0.9-2.8,2.8-2.8C193.2,33.8,193.8,34,194.4,34.6z"/>
	<path class="st0" d="M241.2,72.7h-11.5c-0.6,0-0.9-0.3-0.9-0.8c0-0.4,0.3-0.7,0.9-0.7c0.8-0.1,1.5-0.2,2.1-0.3
		c1.2-0.3,1.8-1.4,1.8-3.2V56.1c0-5.6-2-8.3-6.1-8.3c-4,0-6.8,2.2-8.4,6.6v13.3c0,1.7,0.5,2.7,1.5,3.1c0.6,0.2,1.4,0.3,2.4,0.4
		c0.5,0,0.9,0.3,0.9,0.9c0,0.4-0.3,0.7-0.9,0.7h-11.5c-0.6,0-0.9-0.3-0.9-0.8c0-0.4,0.3-0.7,0.9-0.7c0.9-0.1,1.6-0.2,2.1-0.3
		c1.2-0.3,1.8-1.4,1.8-3.1V51.3c0-1.8-0.4-2.7-1.3-3.1c-0.5-0.2-1.4-0.3-2.6-0.3c-0.6,0-0.9-0.3-0.9-0.9c0-0.5,0.3-0.8,0.9-0.8
		c2.4-0.1,4.6-0.3,6.5-0.7c0.6-0.1,0.9,0.2,0.9,0.8v4.8c2.3-3.7,5.4-5.6,9.3-5.6c6,0,9,3.3,9,9.9v12.3c0,1.7,0.5,2.7,1.6,3.1
		c0.5,0.2,1.3,0.3,2.3,0.4c0.5,0,0.9,0.3,0.9,0.8C242,72.4,241.7,72.7,241.2,72.7z"/>
</g>
<g>
	<path class="st1" d="M23.2,89.3c0.5,0,0.9,0.4,0.8,0.9c-0.3,6.3-6.8,9.8-11.6,12.4c-0.4,0.3-0.9-0.4-0.4-0.7
		c3.9-2.5,10-5.9,10.2-11.3c0-0.2-0.2-0.3-0.3-0.3H11.2c-0.7,0-0.7-1,0-1H23.2z M21.9,85.3c0.7,0,0.7-1,0-1H13c-0.7,0-0.7,1,0,1
		H21.9z"/>
	<path class="st1" d="M53.7,90.4c0,0-0.1,0.1-0.1,0.2v11.5c0,1.1-1.6,1.1-1.6,0V91.8c0,0,0-0.1-0.1,0c-2.4,1.6-4.9,2.9-8.8,4.8
		c-0.5,0.2-0.9-0.5-0.4-0.8c4.4-2.4,5.9-3,8.9-5.4c2.2-1.7,4.4-3.8,4.4-6.6v-0.1c0-1.1,1.7-1.1,1.7-0.1
		C57.6,86.4,55.8,88.6,53.7,90.4z"/>
	<path class="st1" d="M92.9,94.8c-3.5,0.1-6.2-1.1-8.3-2.7c-0.1-0.1-0.3,0-0.3,0.2v9.8c0,1-1.5,1-1.5,0l0-16.7
		c0-0.5-0.3-0.8-0.7-0.8h-0.6c-0.6,0-0.6-0.9,0-0.9h0.7c1.4,0,2.1,0.8,2.1,2.2v4.7c0,0.2,0.1,0.4,0.3,0.5c2.1,1.7,4.8,2.3,8.3,2.3
		C93.9,93.2,94,94.7,92.9,94.8z"/>
	<path class="st1" d="M127.2,86.5c0.5,0,0.8,0.4,0.8,0.9v0c-0.2,3.6-2,6.5-4.6,8.9c-2.7,2.5-5.9,4.2-9.2,5.7
		c-0.5,0.2-0.9-0.5-0.4-0.8c2.9-1.4,5.7-3.1,8-5.4c1.3-1.3,2.5-2.7,3.3-4.3c0.6-1.2,0.8-2.4,0.9-3.7c0-0.2-0.1-0.3-0.3-0.3h-11.1
		c-0.6,0-0.7-1,0-1H127.2z M130.4,85.9c-0.1,0.7-0.7,0.8-1,0.3c-0.8-1.5-2-2.3-3-2.9c-0.3-0.2-0.1-0.6,0.2-0.5
		C127,82.8,130.5,84,130.4,85.9z M132.7,84.3c0,0.7-0.7,0.9-1,0.3c-0.9-1.4-2.1-2.2-3.1-2.8c-0.3-0.1-0.2-0.5,0.1-0.5
		C129.2,81.3,132.7,82.3,132.7,84.3z"/>
	<path class="st1" d="M158.7,97c-2.8,1.9-5.7,3.1-9,3.3c-0.5,0-1-0.3-1-0.9V88.2c0-0.5-0.3-0.9-0.7-0.9h-0.6c-0.6,0-0.6-1,0-1h0.7
		c1.3,0,2.1,0.8,2.1,2.2v9.8c0,0.2,0.2,0.3,0.3,0.3c2.7-0.2,5.1-1.2,7.5-2.7c2.2-1.4,4.1-3.1,6.1-4.8c0.4-0.3,1,0.2,0.6,0.6
		C162.8,93.6,160.9,95.5,158.7,97z"/>
	<path class="st1" d="M191.7,90.4c0,0-0.1,0.1-0.1,0.2v11.5c0,1.1-1.6,1.1-1.6,0V91.8c0,0,0-0.1-0.1,0c-2.4,1.6-4.9,2.9-8.8,4.8
		c-0.5,0.2-0.9-0.5-0.4-0.8c4.4-2.4,5.9-3,8.9-5.4c2.2-1.7,4.4-3.8,4.4-6.6v-0.1c0-1.1,1.7-1.1,1.7-0.1
		C195.6,86.4,193.8,88.6,191.7,90.4z"/>
	<path class="st1" d="M221.4,89.7c0.3,0.3,0.4,0.8,0.1,1.1c-0.3,0.3-0.8,0.4-1.2,0.1c-0.6-0.5-1.1-1.2-1.8-1.7
		c-0.8-0.6-1.6-1.1-2.4-1.6c-0.4-0.3-0.1-1,0.4-0.7C218.3,87.6,220,88.4,221.4,89.7z M222.8,98.1c1.7-0.7,3.3-1.8,4.6-3.1
		c2.2-2.1,3.8-4.8,5.5-7.3c0.3-0.5,1,0,0.7,0.4c-1.6,3-3.4,6-5.8,8.4c-2.6,2.6-5.9,3.9-9.5,4.1c-1.1,0.1-1.2-1.7-0.1-1.7
		C219.8,99,221.3,98.7,222.8,98.1z"/>
</g>
</svg>
